<mxfile host="app.diagrams.net" agent="Mozilla/5.0 (Windows NT 10.0; Win64; x64) AppleWebKit/537.36 (KHTML, like Gecko) Chrome/136.0.0.0 Safari/537.36 Edg/136.0.0.0" version="27.0.2">
  <diagram name="PÃ¡gina-1" id="rMuucRDuA7ocxiUOX42R">
    <mxGraphModel dx="916" dy="615" grid="1" gridSize="10" guides="1" tooltips="1" connect="1" arrows="1" fold="1" page="1" pageScale="1" pageWidth="827" pageHeight="1169" math="0" shadow="0">
      <root>
        <mxCell id="0" />
        <mxCell id="1" parent="0" />
        <mxCell id="vVcP5i5IKidVNTVOCY_M-11" style="edgeStyle=orthogonalEdgeStyle;rounded=0;orthogonalLoop=1;jettySize=auto;html=1;exitX=0.75;exitY=1;exitDx=0;exitDy=0;" edge="1" parent="1" source="vVcP5i5IKidVNTVOCY_M-1" target="vVcP5i5IKidVNTVOCY_M-5">
          <mxGeometry relative="1" as="geometry" />
        </mxCell>
        <mxCell id="vVcP5i5IKidVNTVOCY_M-1" value="Contato Modulo" style="rounded=0;whiteSpace=wrap;html=1;" vertex="1" parent="1">
          <mxGeometry x="200" y="240" width="120" height="60" as="geometry" />
        </mxCell>
        <mxCell id="vVcP5i5IKidVNTVOCY_M-8" style="edgeStyle=orthogonalEdgeStyle;rounded=0;orthogonalLoop=1;jettySize=auto;html=1;" edge="1" parent="1" source="vVcP5i5IKidVNTVOCY_M-2" target="vVcP5i5IKidVNTVOCY_M-1">
          <mxGeometry relative="1" as="geometry" />
        </mxCell>
        <mxCell id="vVcP5i5IKidVNTVOCY_M-9" style="edgeStyle=orthogonalEdgeStyle;rounded=0;orthogonalLoop=1;jettySize=auto;html=1;" edge="1" parent="1" source="vVcP5i5IKidVNTVOCY_M-2" target="vVcP5i5IKidVNTVOCY_M-3">
          <mxGeometry relative="1" as="geometry" />
        </mxCell>
        <mxCell id="vVcP5i5IKidVNTVOCY_M-2" value="Principal" style="rounded=0;whiteSpace=wrap;html=1;" vertex="1" parent="1">
          <mxGeometry x="320" y="110" width="120" height="60" as="geometry" />
        </mxCell>
        <mxCell id="vVcP5i5IKidVNTVOCY_M-12" style="edgeStyle=orthogonalEdgeStyle;rounded=0;orthogonalLoop=1;jettySize=auto;html=1;" edge="1" parent="1" source="vVcP5i5IKidVNTVOCY_M-3" target="vVcP5i5IKidVNTVOCY_M-6">
          <mxGeometry relative="1" as="geometry" />
        </mxCell>
        <mxCell id="vVcP5i5IKidVNTVOCY_M-3" value="Ciclo Social Modulo" style="rounded=0;whiteSpace=wrap;html=1;" vertex="1" parent="1">
          <mxGeometry x="430" y="240" width="120" height="60" as="geometry" />
        </mxCell>
        <mxCell id="vVcP5i5IKidVNTVOCY_M-4" value="Formulairo" style="rounded=0;whiteSpace=wrap;html=1;" vertex="1" parent="1">
          <mxGeometry x="60" y="340" width="120" height="60" as="geometry" />
        </mxCell>
        <mxCell id="vVcP5i5IKidVNTVOCY_M-5" value="Listagem" style="rounded=0;whiteSpace=wrap;html=1;" vertex="1" parent="1">
          <mxGeometry x="240" y="340" width="120" height="60" as="geometry" />
        </mxCell>
        <mxCell id="vVcP5i5IKidVNTVOCY_M-6" value="Formulairo" style="rounded=0;whiteSpace=wrap;html=1;" vertex="1" parent="1">
          <mxGeometry x="410" y="340" width="120" height="60" as="geometry" />
        </mxCell>
        <mxCell id="vVcP5i5IKidVNTVOCY_M-7" value="Listagem" style="rounded=0;whiteSpace=wrap;html=1;" vertex="1" parent="1">
          <mxGeometry x="590" y="340" width="120" height="60" as="geometry" />
        </mxCell>
        <mxCell id="vVcP5i5IKidVNTVOCY_M-10" style="edgeStyle=orthogonalEdgeStyle;rounded=0;orthogonalLoop=1;jettySize=auto;html=1;entryX=0.463;entryY=0.06;entryDx=0;entryDy=0;entryPerimeter=0;" edge="1" parent="1" source="vVcP5i5IKidVNTVOCY_M-1" target="vVcP5i5IKidVNTVOCY_M-4">
          <mxGeometry relative="1" as="geometry" />
        </mxCell>
        <mxCell id="vVcP5i5IKidVNTVOCY_M-13" style="edgeStyle=orthogonalEdgeStyle;rounded=0;orthogonalLoop=1;jettySize=auto;html=1;entryX=0.479;entryY=0.087;entryDx=0;entryDy=0;entryPerimeter=0;" edge="1" parent="1" source="vVcP5i5IKidVNTVOCY_M-3" target="vVcP5i5IKidVNTVOCY_M-7">
          <mxGeometry relative="1" as="geometry" />
        </mxCell>
        <mxCell id="vVcP5i5IKidVNTVOCY_M-14" value="Provider&lt;div&gt;Contexto Contato&lt;/div&gt;" style="shape=cube;whiteSpace=wrap;html=1;boundedLbl=1;backgroundOutline=1;darkOpacity=0.05;darkOpacity2=0.1;size=10;fillColor=#C1EBFF;" vertex="1" parent="1">
          <mxGeometry x="150" y="200" width="70" height="60" as="geometry" />
        </mxCell>
        <mxCell id="vVcP5i5IKidVNTVOCY_M-15" value="Contexto Contato" style="shape=cube;whiteSpace=wrap;html=1;boundedLbl=1;backgroundOutline=1;darkOpacity=0.05;darkOpacity2=0.1;size=10;fillColor=#C1EBFF;" vertex="1" parent="1">
          <mxGeometry x="190" y="320" width="70" height="40" as="geometry" />
        </mxCell>
        <mxCell id="vVcP5i5IKidVNTVOCY_M-16" value="Contexto Contato" style="shape=cube;whiteSpace=wrap;html=1;boundedLbl=1;backgroundOutline=1;darkOpacity=0.05;darkOpacity2=0.1;size=10;fillColor=#C1EBFF;" vertex="1" parent="1">
          <mxGeometry x="30" y="320" width="70" height="40" as="geometry" />
        </mxCell>
        <mxCell id="vVcP5i5IKidVNTVOCY_M-17" value="Provider&lt;div&gt;Contexto Ciclo Social&lt;/div&gt;" style="shape=cube;whiteSpace=wrap;html=1;boundedLbl=1;backgroundOutline=1;darkOpacity=0.05;darkOpacity2=0.1;size=10;fillColor=#FFEBCE;" vertex="1" parent="1">
          <mxGeometry x="530" y="210" width="80" height="60" as="geometry" />
        </mxCell>
        <mxCell id="vVcP5i5IKidVNTVOCY_M-20" value="Contexto Ciclo Social" style="shape=cube;whiteSpace=wrap;html=1;boundedLbl=1;backgroundOutline=1;darkOpacity=0.05;darkOpacity2=0.1;size=10;fillColor=#FFEBCE;" vertex="1" parent="1">
          <mxGeometry x="500" y="330" width="80" height="40" as="geometry" />
        </mxCell>
        <mxCell id="vVcP5i5IKidVNTVOCY_M-21" value="Contexto Ciclo Social" style="shape=cube;whiteSpace=wrap;html=1;boundedLbl=1;backgroundOutline=1;darkOpacity=0.05;darkOpacity2=0.1;size=10;fillColor=#FFEBCE;" vertex="1" parent="1">
          <mxGeometry x="670" y="330" width="80" height="40" as="geometry" />
        </mxCell>
        <mxCell id="vVcP5i5IKidVNTVOCY_M-22" value="&lt;div&gt;Contexto Login&lt;/div&gt;" style="shape=cube;whiteSpace=wrap;html=1;boundedLbl=1;backgroundOutline=1;darkOpacity=0.05;darkOpacity2=0.1;size=10;fillColor=#FFD2E3;" vertex="1" parent="1">
          <mxGeometry x="500" y="300" width="80" height="40" as="geometry" />
        </mxCell>
        <mxCell id="vVcP5i5IKidVNTVOCY_M-23" value="Provider&lt;div&gt;Contexto Login&lt;/div&gt;" style="shape=cube;whiteSpace=wrap;html=1;boundedLbl=1;backgroundOutline=1;darkOpacity=0.05;darkOpacity2=0.1;size=10;fillColor=#FFD2E3;" vertex="1" parent="1">
          <mxGeometry x="400" y="70" width="80" height="60" as="geometry" />
        </mxCell>
        <mxCell id="vVcP5i5IKidVNTVOCY_M-24" value="&lt;div&gt;Contexto Login&lt;/div&gt;" style="shape=cube;whiteSpace=wrap;html=1;boundedLbl=1;backgroundOutline=1;darkOpacity=0.05;darkOpacity2=0.1;size=10;fillColor=#FFD2E3;" vertex="1" parent="1">
          <mxGeometry x="530" y="180" width="80" height="40" as="geometry" />
        </mxCell>
        <mxCell id="vVcP5i5IKidVNTVOCY_M-25" value="&lt;div&gt;Contexto Login&lt;/div&gt;" style="shape=cube;whiteSpace=wrap;html=1;boundedLbl=1;backgroundOutline=1;darkOpacity=0.05;darkOpacity2=0.1;size=10;fillColor=#FFD2E3;" vertex="1" parent="1">
          <mxGeometry x="670" y="300" width="80" height="40" as="geometry" />
        </mxCell>
        <mxCell id="vVcP5i5IKidVNTVOCY_M-26" value="&lt;div&gt;Contexto Login&lt;/div&gt;" style="shape=cube;whiteSpace=wrap;html=1;boundedLbl=1;backgroundOutline=1;darkOpacity=0.05;darkOpacity2=0.1;size=10;fillColor=#FFD2E3;" vertex="1" parent="1">
          <mxGeometry x="150" y="170" width="70" height="40" as="geometry" />
        </mxCell>
        <mxCell id="vVcP5i5IKidVNTVOCY_M-27" value="&lt;div&gt;Contexto Login&lt;/div&gt;" style="shape=cube;whiteSpace=wrap;html=1;boundedLbl=1;backgroundOutline=1;darkOpacity=0.05;darkOpacity2=0.1;size=10;fillColor=#FFD2E3;" vertex="1" parent="1">
          <mxGeometry x="30" y="290" width="70" height="40" as="geometry" />
        </mxCell>
        <mxCell id="vVcP5i5IKidVNTVOCY_M-29" value="" style="edgeStyle=orthogonalEdgeStyle;rounded=0;orthogonalLoop=1;jettySize=auto;html=1;" edge="1" parent="1" source="vVcP5i5IKidVNTVOCY_M-1" target="vVcP5i5IKidVNTVOCY_M-28">
          <mxGeometry relative="1" as="geometry">
            <mxPoint x="260" y="300" as="sourcePoint" />
            <mxPoint x="300" y="340" as="targetPoint" />
          </mxGeometry>
        </mxCell>
        <mxCell id="vVcP5i5IKidVNTVOCY_M-28" value="&lt;div&gt;Contexto Login&lt;/div&gt;" style="shape=cube;whiteSpace=wrap;html=1;boundedLbl=1;backgroundOutline=1;darkOpacity=0.05;darkOpacity2=0.1;size=10;fillColor=#FFD2E3;" vertex="1" parent="1">
          <mxGeometry x="190" y="290" width="70" height="40" as="geometry" />
        </mxCell>
      </root>
    </mxGraphModel>
  </diagram>
</mxfile>
